<svg xmlns="http://www.w3.org/2000/svg" width="800" height="960" viewBox="0 0 800 960">
    <defs>
      <linearGradient id="bg" x1="0" x2="1" y1="0" y2="1">
        <stop offset="0%" stop-color="#c4b09d"/>
        <stop offset="100%" stop-color="#5b3d38"/>
      </linearGradient>
      <linearGradient id="gold" x1="0" x2="1" y1="0" y2="1">
        <stop offset="0%" stop-color="#f0d5b1"/>
        <stop offset="100%" stop-color="#bf8852"/>
      </linearGradient>
    </defs>
    <rect width="800" height="960" fill="url(#bg)"/>
    <circle cx="650" cy="180" r="180" fill="rgba(255,255,255,.15)"/>
    <circle cx="150" cy="760" r="170" fill="rgba(255,255,255,.11)"/>
    <path d="M120 860C260 660 560 640 710 860" fill="rgba(15,8,8,.08)"/>
    <g transform="translate(80,120)"><rect x="132" y="165" width="385" height="220" rx="26" fill="rgba(255,250,246,.95)"/>
<rect x="165" y="135" width="320" height="56" rx="18" fill="rgba(255,235,224,.94)"/>
<rect x="185" y="210" width="80" height="125" rx="16" fill="rgba(221,181,149,.35)"/>
<rect x="285" y="210" width="80" height="125" rx="16" fill="rgba(221,181,149,.35)"/>
<rect x="385" y="210" width="80" height="125" rx="16" fill="rgba(221,181,149,.35)"/>
<path d="M165 165c7-30 19-47 36-51h247c17 4 29 21 37 51" fill="rgba(255,255,255,.9)"/></g>
    <rect x="66" y="70" width="668" height="820" rx="38" fill="none" stroke="rgba(255,255,255,.35)"/>
    <text x="74" y="828" font-family="Georgia, serif" font-size="56" fill="white">Choice Fashion Centre</text>
    <text x="74" y="872" font-family="Arial, sans-serif" font-size="23" fill="rgba(255,255,255,.82)">Style confidence, curated beautifully</text>
    <path d="M74 96h142" stroke="url(#gold)" stroke-width="4" stroke-linecap="round"/>
    <text x="74" y="54" font-family="Arial, sans-serif" font-size="20" fill="rgba(255,255,255,.82)">Choice Fashion Centre</text>
    </svg>