<svg xmlns="http://www.w3.org/2000/svg" width="800" height="960" viewBox="0 0 800 960">
    <defs>
      <linearGradient id="bg" x1="0" x2="1" y1="0" y2="1">
        <stop offset="0%" stop-color="#c5ad89"/>
        <stop offset="100%" stop-color="#6f5740"/>
      </linearGradient>
      <linearGradient id="gold" x1="0" x2="1" y1="0" y2="1">
        <stop offset="0%" stop-color="#f0d5b1"/>
        <stop offset="100%" stop-color="#bf8852"/>
      </linearGradient>
    </defs>
    <rect width="800" height="960" fill="url(#bg)"/>
    <circle cx="650" cy="180" r="180" fill="rgba(255,255,255,.15)"/>
    <circle cx="150" cy="760" r="170" fill="rgba(255,255,255,.11)"/>
    <path d="M120 860C260 660 560 640 710 860" fill="rgba(15,8,8,.08)"/>
    <g transform="translate(80,120)"><path d="M228 150c42-28 113-21 155 14 34 27 42 68 35 114-5 37-24 79-1 129h-91c-35-32-56-71-65-117-11-59-17-107-33-140z" fill="rgba(255,245,238,.94)"/>
<path d="M405 161c36 40 52 72 51 112-1 45-22 93-52 134h-62c31-49 44-91 40-127-4-32-18-58-40-91z" fill="rgba(255,230,210,.78)"/>
<circle cx="323" cy="122" r="27" fill="#f4d7cc"/></g>
    <rect x="66" y="70" width="668" height="820" rx="38" fill="none" stroke="rgba(255,255,255,.35)"/>
    <text x="74" y="828" font-family="Georgia, serif" font-size="56" fill="white">Noor Elegance</text>
    <text x="74" y="872" font-family="Arial, sans-serif" font-size="23" fill="rgba(255,255,255,.82)">Festive saree • luminous drape</text>
    <path d="M74 96h142" stroke="url(#gold)" stroke-width="4" stroke-linecap="round"/>
    <text x="74" y="54" font-family="Arial, sans-serif" font-size="20" fill="rgba(255,255,255,.82)">Choice Fashion Centre</text>
    </svg>